<?xml version="1.0" encoding="UTF-8"?>
<svg width="48px" height="48px" viewBox="0 0 48 48" version="1.1" xmlns="http://www.w3.org/2000/svg" xmlns:xlink="http://www.w3.org/1999/xlink">
    <!-- Generator: Sketch 50.2 (55047) - http://www.bohemiancoding.com/sketch -->
    <title>icon/Cleared</title>
    <desc>Created with Sketch.</desc>
    <defs>
        <path d="M24,46 C11.8497355,46 2,36.1502644 2,24 C2,11.8497355 11.8497355,2 24,2 C36.1502644,2 46,11.8497355 46,24 C46,36.1502644 36.1502644,46 24,46 Z M23.9796783,22.0473098 L16.3610489,14.4449909 C15.8209263,13.9057704 14.9452146,13.9057704 14.4050919,14.4449909 C13.8649694,14.9842114 13.8649694,15.8584606 14.4050919,16.3976811 L22.0237214,24 L14.4050919,31.6023188 C13.8649694,32.1415395 13.8649694,33.0157885 14.4050919,33.5550091 C14.9452146,34.0942295 15.8209263,34.0942295 16.3610489,33.5550091 L23.9796783,25.9526902 L31.6389512,33.5955847 C32.1790736,34.1348051 33.0547854,34.1348051 33.5949081,33.5955847 C34.1350306,33.056364 34.1350306,32.1821148 33.5949081,31.6428944 L25.9356352,24 L33.5949081,16.3571056 C34.1350306,15.8178851 34.1350306,14.9436359 33.5949081,14.4044154 C33.0547854,13.8651949 32.1790736,13.8651949 31.6389512,14.4044154 L23.9796783,22.0473098 Z" id="path-1"></path>
    </defs>
    <g id="icon/Cleared" stroke="none" stroke-width="1" fill="none" fill-rule="evenodd">
        <mask id="mask-2" fill="white">
            <use xlink:href="#path-1"></use>
        </mask>
        <g fill-rule="nonzero"></g>
        <g id="color/C7" mask="url(#mask-2)" fill="#333333">
            <rect id="color" x="0" y="0" width="48" height="48"></rect>
        </g>
    </g>
</svg>