<?xml version="1.0" encoding="UTF-8"?>
<svg width="48px" height="48px" viewBox="0 0 48 48" version="1.1" xmlns="http://www.w3.org/2000/svg" xmlns:xlink="http://www.w3.org/1999/xlink">
    <!-- Generator: Sketch 50.2 (55047) - http://www.bohemiancoding.com/sketch -->
    <title>icon/Eye close</title>
    <desc>Created with Sketch.</desc>
    <defs>
        <path d="M8.10976176,23.1044269 C6.32816321,21.0576232 4.91735718,18.6550941 4,15.9860363 L6.92554835,15 C9.45875811,22.3707741 16.3756565,27.3713866 24.1390176,27.4387555 C31.8127896,27.377511 38.6246525,22.3891475 41.0651838,15.0153111 L44,15.9707251 C43.1050458,18.6733575 41.706001,21.1029743 39.9288255,23.1671835 L43.6833488,27.3370897 L41.3787458,29.3765311 L37.7536356,25.3503557 C35.7333077,27.1026502 33.3906507,28.4643527 30.8470242,29.3464456 L32.5214705,33.9649682 L29.6144578,35 L27.8531743,30.1419595 C26.6429449,30.3691492 25.4011648,30.4915571 24.1390176,30.5009799 C22.9294337,30.4903982 21.7378577,30.3781786 20.5739283,30.1713304 L18.8232932,35 L15.9162805,33.9649682 L17.5680834,29.4089016 C14.8857504,28.5173785 12.4153271,27.1072091 10.2936697,25.2779165 L6.60333642,29.3765311 L4.2987334,27.3370897 L8.10976176,23.1044269 Z" id="path-1"></path>
    </defs>
    <g id="icon/Eye-close" stroke="none" stroke-width="1" fill="none" fill-rule="evenodd">
        <mask id="mask-2" fill="white">
            <use xlink:href="#path-1"></use>
        </mask>
        <g></g>
        <g id="color/C7" mask="url(#mask-2)" fill="#333333">
            <rect id="color" x="0" y="0" width="48" height="48"></rect>
        </g>
    </g>
</svg>